<!DOCTYPE svg PUBLIC "-//W3C//DTD SVG 1.1//EN" "http://www.w3.org/Graphics/SVG/1.1/DTD/svg11.dtd">
<svg xmlns="http://www.w3.org/2000/svg" viewBox="0 0 512 512">
<path d="M148.5 11.399c-12.978 4.104-22.998 14.522-26.887 27.955-1.055 3.641-1.519 4.022-6.44 5.281-6.859 1.755-12.658 5.204-17.769 10.567C87.01 66.108 86 70.668 86 106.666v28.245l-2.522 3.717c-10.813 15.933-4.505 38.818 13.086 47.478 5.763 2.837 6.453 3.504 6.999 6.771 4.094 24.476 17.496 46.687 36.687 60.8 4.574 3.364 4.75 3.68 4.75 8.523 0 4.922-.175 5.215-8.15 13.665-12.373 13.108-10.402 12.227-51.634 23.105-39.677 10.467-44.451 12.307-51.344 19.785-7.405 8.033-8.138 10.717-21.658 79.276C-.16 460.78-.382 462.142.723 468.594c2.312 13.494 10.253 24.127 22.274 29.824L29.5 501.5l163.456.262c180.692.289 167.625.729 178.333-6.007 14.552-9.156 19.942-24.854 15.814-46.056-2.845-14.609-3.067-13.699 3.348-13.699 15.956 0 20.582-3.49 25.913-19.549l3.667-11.049 4.235-1.563 4.234-1.564 9.962 4.978c16.655 8.322 19.362 7.618 36.249-9.433 16.373-16.533 16.964-18.797 9.14-35.021l-5.16-10.7 1.656-4.337c1.654-4.33 1.674-4.344 11.905-7.666 18.7-6.073 20.088-8.462 19.584-33.716-.46-23.121-1.723-24.973-21.019-30.826-8.642-2.622-8.69-2.655-10.404-7.143l-1.722-4.51 5.16-10.7c7.824-16.224 7.233-18.488-9.14-35.021-16.803-16.966-19.796-17.716-36.433-9.128l-9.788 5.052-4.53-2.004c-4.412-1.951-4.591-2.209-6.803-9.802-5.836-20.033-7.771-21.298-32.594-21.298-24.924 0-25.925.588-32.001 18.802-3.566 10.689-3.573 10.699-8.006 12.523l-4.438 1.824-9.67-5.074c-16.494-8.656-19.299-7.921-36.648 9.605-16.312 16.48-16.818 18.52-8.621 34.803l5.18 10.289-1.716 4.492-1.715 4.491-9.802 3.108c-5.392 1.709-11.397 4.189-13.346 5.512l-3.544 2.404-8.118-8.16c-8.012-8.054-8.118-8.227-8.118-13.219v-5.059l7.603-5.92c16.928-13.184 29.253-33.845 33.459-56.09l1.166-6.169 6.344-3.123c17.771-8.749 23.829-31.152 12.95-47.892-2.295-3.531-2.384-4.426-2.8-28.147-.373-21.312-.714-25.524-2.622-32.374-9.651-34.656-37.706-60.406-72.534-66.575-8.781-1.555-73.955-1.269-79.066.348m3.696 15.451c-8.967 3.177-14.687 10.39-15.779 19.897-.934 8.128-1.36 9.172-4.382 10.735-1.615.835-4.871 1.522-7.235 1.528-4.945.011-13.264 3.597-16.488 7.108-5.662 6.165-6.266 9.504-6.29 34.763L102 124.262l3.75-.62c2.063-.341 4.956-.625 6.429-.631 2.46-.01 2.773-.483 3.829-5.761 5.057-25.302 13.534-38.457 26.586-41.256 4.34-.931 6.736-.682 18.447 1.921 19.243 4.275 34.632 6.031 65.416 7.463 30.52 1.42 32.348 1.868 40.483 9.905 6.029 5.956 9.253 12.795 9.834 20.857l.479 6.639 3.623.6c1.993.329 4.228.604 4.966.61 2.828.023 1.08-37.019-2.193-46.489-8.558-24.762-28.833-43.625-53.907-50.152-10.284-2.677-70.307-3.062-77.546-.498m-10.524 67.288c-4.998 5.012-7.554 12.709-12.661 38.124-1.452 7.229-4.908 9.685-11.039 7.848C105.424 136.35 94 144.161 94 156.5c0 9.124 7.902 17.5 16.509 17.5 5.033 0 7.285 3.671 8.462 13.791 6.705 57.68 72.685 87.425 119.375 53.818C257.624 227.732 271 203.038 271 181.324c0-3.258 4.241-7.324 7.639-7.324 12.476 0 20.472-15.309 13.875-26.566-3.785-6.458-9.387-8.804-18.9-7.913-10.418.977-11.612-.285-11.62-12.271-.006-10.683-1.191-15.266-5.095-19.712-4.869-5.546-8.723-6.345-33.399-6.922-24.512-.573-41.708-2.355-60.436-6.262-19.288-4.025-17.612-4.008-21.392-.216m228.669 103.085c-.522.702-2.247 5.44-3.834 10.528-3.663 11.749-6.466 15.205-15.235 18.779-10.058 4.099-13.934 3.742-25.861-2.386l-9.911-5.092-9.95 9.93-9.95 9.93 5.206 10.794c6.104 12.658 6.287 14.808 2.107 24.848-3.719 8.933-6.622 11.593-15.926 14.589-3.843 1.238-6.987 2.539-6.987 2.891 0 .509 49.353 13.966 51.221 13.966.275 0 .758-2.176 1.073-4.836 5.088-42.961 58.443-60.753 89.283-29.773 35.205 35.366 4.862 96.015-44.374 88.692-4.127-.613-7.594-.996-7.705-.849-.111.146 2.486 13.895 5.771 30.553l5.972 30.287 8.629-.287 8.63-.287 3.778-10.974c4.402-12.79 6.352-15.198 15.27-18.86 9.717-3.99 13.576-3.626 25.627 2.422l10.138 5.087 10.067-10.067 10.067-10.068-5.369-10.882c-6.189-12.544-6.363-15.316-1.622-25.88 3.776-8.416 5.996-10.146 18.326-14.284l10.718-3.597v-28.656l-10.756-3.702c-12.397-4.266-14.526-5.933-18.288-14.317-4.686-10.441-4.522-13.069 1.613-25.772l5.331-11.038-10.025-10.024-10.024-10.025-10.069 5.235c-11.888 6.182-15.436 6.529-25.394 2.485-9.112-3.7-11.176-6.228-15.61-19.109L398.5 196.5l-13.605-.277c-10.142-.207-13.846.048-14.554 1M161.173 274.82c.587 14.184 6.553 23.729 18.978 30.359 6.717 3.585 22.32 3.401 29.349-.346 11.786-6.282 18.254-16.944 18.718-30.852.237-7.136.044-8.418-1.218-8.087-.825.217-4.335 1.208-7.801 2.201-15.774 4.523-35.62 4.288-51.023-.604l-7.403-2.351.4 9.68m213.756-2.517c-15.313 4.344-26.703 18.502-27.122 33.715-.161 5.834-.142 5.876 4.843 10.357 5.36 4.82 10.754 13.819 11.862 19.793 1.017 5.489 7.763 8.295 19.988 8.317 14.556.025 26.527-7.289 33.071-20.204 4.587-9.054 4.377-24.111-.461-33.033-8.372-15.438-26.245-23.466-42.181-18.945m-234.388 22.384c-8.261 7.784-11.397 8.972-51.041 19.343-21.734 5.685-36.64 10.101-39.328 11.65-8.713 5.024-8.597 4.643-22.043 72.698-14.382 72.8-14.243 71.062-6.381 79.765 7.178 7.945 8.67 8.31 35.502 8.684 13.063.183 23.755-.042 23.76-.498.006-.456-3.643-31.319-8.11-68.585-8.713-72.701-8.709-72.614-3.616-78.414 5.905-6.726-1.953-6.33 125.527-6.33h115.874l4.355 2.303c4.977 2.631 8.96 8.993 8.96 14.309 0 1.813-3.6 33.263-8 69.888-4.4 36.625-8 66.832-8 67.125 0 .294 10.688.385 23.75.202 22.027-.307 24.041-.487 27.763-2.478 8.434-4.513 13.425-12.106 13.465-20.48.033-7.055-23.448-124.914-25.802-129.504-4.522-8.819-5.733-9.336-47.676-20.319-38.523-10.088-42.922-11.764-51.348-19.566l-5.753-5.326-3.444 7.084c-17.789 36.595-70.55 36.687-88.605.155-2.01-4.066-3.698-7.377-3.752-7.357-.054.021-2.779 2.563-6.057 5.651M81 351.357c0 2.051 13.94 119.994 15.53 131.393l.593 4.25h194.786l.542-3.25c1.091-6.555 15.56-129.337 15.554-132L308 349H81v2.357m105.718 42.019c-26.282 9.8-21.987 47.147 5.677 49.368 27.274 2.189 38.473-34.157 14.538-47.184-6.136-3.34-14.649-4.259-20.215-2.184m1.205 17.547c-4.008 4.008-4.081 9.608-.173 13.303 6.626 6.265 16.25 2.254 16.25-6.773 0-8.576-9.978-12.629-16.077-6.53" fill-rule="evenodd"/>
</svg>