<!DOCTYPE svg PUBLIC "-//W3C//DTD SVG 1.1//EN" "http://www.w3.org/Graphics/SVG/1.1/DTD/svg11.dtd">
<svg xmlns="http://www.w3.org/2000/svg" viewBox="0 0 512 512">
<path d="M204.036 17.25c-8.494 4.355-8.036-.145-8.036 78.984V166l-31.75.002c-35.438.001-36.493.179-40.98 6.896-2.497 3.738-3.058 10.674-1.166 14.418 1.569 3.104 123.832 125.513 127.096 127.249 1.486.789 4.545 1.435 6.8 1.435s5.314-.646 6.8-1.435c3.264-1.736 125.527-124.145 127.096-127.249 1.892-3.744 1.331-10.68-1.166-14.418-4.487-6.717-5.542-6.895-40.98-6.896L316 166V96.234c0-79.129.458-74.629-8.036-78.984C303.595 15.01 303.372 15 256 15s-47.595.01-51.964 2.25m21.734 98.177c-.266 69.358-.301 70.469-2.332 73.188-5.017 6.72-5.487 6.837-29.516 7.385l-21.937.5 42.007 41.996L256 280.491l42.008-41.995 42.007-41.996-21.937-.5c-24.029-.548-24.499-.665-29.516-7.385-2.031-2.719-2.066-3.83-2.332-73.188L285.961 45h-59.922l-.269 70.427M81.193 347.06C6.442 356.911-9.135 458.952 59.37 490.014c15.473 7.016-.584 6.486 196.63 6.486h177.5l7.809-2.263c74.175-21.497 73.333-124.341-1.191-145.555l-7.618-2.168-172.5-.143c-94.875-.078-175.338.232-178.807.689m1.942 29.97c-13.017 1.892-27.68 12.973-33.53 25.34-12.467 26.353 3.741 58.298 32.281 63.625 7.392 1.379 340.836 1.379 348.228 0 18.119-3.382 33.013-18.835 36.098-37.457 3.978-24.004-13.848-48.037-38.246-51.563-7.836-1.133-337.025-1.08-344.831.055m271.121 31.615c-6.851 3.377-9.617 13.628-5.554 20.585 5.525 9.46 20.329 9.336 25.435-.214 6.929-12.959-6.664-26.887-19.881-20.371" fill-rule="evenodd"/>
</svg>