<!DOCTYPE svg PUBLIC "-//W3C//DTD SVG 1.1//EN" "http://www.w3.org/Graphics/SVG/1.1/DTD/svg11.dtd">
<svg xmlns="http://www.w3.org/2000/svg" viewBox="0 0 512 512">
<path d="M241.5 16.163C236.421 17.518 111.118 141.65 107.915 148.5c-5.134 10.978-.564 23.855 10.585 29.825 3.776 2.022 5.636 2.162 33.25 2.499l29.25.356v47.442c0 51.8-.106 50.771 5.922 57.636 6.056 6.898 5.509 6.841 63.243 6.525l51.665-.283 4.335-3.006c2.839-1.969 5.284-4.878 7.085-8.43l2.75-5.423V181.18l29.25-.356c27.614-.337 29.474-.477 33.25-2.499 10.766-5.765 15.463-18.239 10.959-29.107-1.949-4.706-125.106-128.394-130.777-131.343-4.668-2.427-11.827-3.14-17.182-1.712m-26.256 86.093c-17.734 17.74-32.244 32.59-32.244 33 0 .409 5.738.754 12.75.766 14.926.026 18.776 1.27 24.452 7.901 5.626 6.572 5.798 8.326 5.798 59.02V249h44.928l.286-48.75.286-48.75 2.796-4.756c5.008-8.521 10.437-10.723 26.454-10.735 7.288-.005 13.25-.349 13.25-.765C314 134.099 249.638 70 248.489 70c-.551 0-15.51 14.515-33.245 32.256M98 316.647c-67.297 6.854-103.938 78.854-69.586 136.739C39.845 472.649 60.875 488.107 84 494.244l8.5 2.256H256c180.575 0 167.275.447 183.853-6.173 48.214-19.252 70.173-75.046 48.09-122.186-11.793-25.176-32.651-41.95-61.943-49.817-6.045-1.624-17.64-1.756-165.5-1.89-87.45-.079-160.575.017-162.5.213m1 45.014c-43.273 7.037-52.863 66.136-13.831 85.231C95.815 452.1 92.458 452 256 452s160.185.1 170.831-5.108c35.484-17.359 32.021-68.829-5.598-83.202l-5.733-2.19-157-.123c-86.35-.068-158.125.06-159.5.284m235 23.537c-10.072 1.745-17.55 11.096-17.393 21.751.335 22.806 31.073 30.321 41.599 10.171 8.967-17.165-4.775-35.287-24.206-31.922m68.326-.054c-5.114.889-9.141 2.913-11.959 6.011-19.551 21.495 11.235 51.517 31.77 30.982 15.719-15.719 2.27-40.831-19.811-36.993" fill-rule="evenodd"/>
</svg>