<svg xmlns="http://www.w3.org/2000/svg" viewBox="0 0 512 512" fill="currentColor">
  <path d="M142.894 1.556C62.427 16.124 36.709 119.786 101 170.417c1.931 1.521 2.989 2.963 2.359 3.217-.628.253-4.228 2.307-8 4.564-31.473 18.832-52.256 47.725-60.637 84.302-1.925 8.4-2.089 12.818-2.458 66.25L31.868 386H21.082c-9.549 0-11.176.26-14.184 2.27-7.046 4.707-6.895 3.387-6.896 60.164C0 506.86-.142 505.816 8.376 509.94l4.255 2.06H256c242.419 0 243.385-.008 247.556-2.027 3.14-1.52 4.846-3.296 6.816-7.093l2.628-5.065v-51.074c0-28.091-.288-50.786-.64-50.435-.352.352-1.364-.801-2.25-2.563-3.1-6.167-7.012-7.743-19.221-7.743h-10.816l-.287-35.428c-.389-48.206 2.27-44.932-36.857-45.382L416 304.881v-33.789l26.929-.296c39.147-.43 36.471 2.883 36.849-45.618.315-40.444.006-42.287-7.762-46.354-5.815-3.044-137.517-2.795-142.97.27-7.619 4.283-7.546 3.844-7.546 45.083 0 49.714-2.803 46.189 37.071 46.618l27.429.295V305h-99l-.006-12.75c-.023-49.749-25.263-94.234-65.465-115.378-3.316-1.744-6.227-3.339-6.469-3.544-.241-.206.659-1.13 2-2.055 22.332-15.384 37.164-45.542 37.267-75.773.201-59.377-53.287-104.47-111.433-93.944m4.596 29.46c-48.437 9.631-69.535 67.615-38.39 105.509 32.682 39.763 95.972 28.007 112.381-20.875 15.571-46.384-26.18-94.14-73.991-84.634m-5.326 161.047c-36.858 6.529-67.41 35.416-77.361 73.143-2.102 7.969-2.202 10.501-2.549 64.544L61.893 386h163.034l.287-35.428c.274-33.987.37-35.541 2.348-38.188 4.448-5.955 6.677-6.826 18.493-7.231l10.945-.374V292c0-47.365-26.88-84.475-70.712-97.623-9.796-2.938-33.564-4.185-44.124-2.314M351 224v17h99v-34h-99v17m-96 136.5V386h195v-51H255v25.5M.465 448.5c0 28.6.128 40.156.284 25.68.157-14.476.157-37.876 0-52-.156-14.124-.284-2.28-.284 26.32M30 449v33h452v-66H30v33" fill-rule="evenodd" fill="#ffffff"/>
</svg>